HIERARCHY
ROOT Hips
{
	OFFSET 0.00 0.00 0.00
	CHANNELS 6 Xposition Yposition Zposition Xrotation Yrotation Zrotation
	JOINT Spine
	{
		OFFSET 0.00000 0.84964 1.27446
		CHANNELS 3 Xrotation Yrotation Zrotation
		JOINT Spine1
		{
			OFFSET 0.00000 0.29508 1.67346
			CHANNELS 3 Xrotation Yrotation Zrotation
			JOINT Spine2
			{
				OFFSET 0.00000 0.14810 1.69281
				CHANNELS 3 Xrotation Yrotation Zrotation
				JOINT Spine3
				{
					OFFSET 0.00000 0.00000 1.69928
					CHANNELS 3 Xrotation Yrotation Zrotation
					JOINT Neck
					{
						OFFSET 0.00000 -0.63723 4.46061
						CHANNELS 3 Xrotation Yrotation Zrotation
						JOINT Head
						{
							OFFSET 0.00000 -0.40573 2.30101
							CHANNELS 3 Xrotation Yrotation Zrotation
							End Site
							{
								OFFSET 0.00000 0.00000 2.75071
							}
						}
					}
					JOINT RightShoulder
					{
						OFFSET -0.72014 -1.20022 3.88874
						CHANNELS 3 Xrotation Yrotation Zrotation
						JOINT RightArm
						{
							OFFSET -3.57668 0.00000 0.00000
							CHANNELS 3 Xrotation Yrotation Zrotation
							JOINT RightForeArm
							{
								OFFSET -5.92485 0.00000 0.00000
								CHANNELS 3 Xrotation Yrotation Zrotation
								JOINT RightHand
								{
									OFFSET -6.63013 0.00000 0.00000
									CHANNELS 3 Xrotation Yrotation Zrotation
									JOINT RightHandEnd
									{
										OFFSET -1.65321 0.00000 0.00000
										CHANNELS 3 Xrotation Yrotation Zrotation
										End Site
										{
											OFFSET -1.65321 0.00000 0.00000
										}
									}
									JOINT RightHandThumb1
									{
										OFFSET -0.66129 -1.10214 -0.44086
										CHANNELS 3 Yrotation Xrotation Zrotation
										End Site
										{
											OFFSET -1.59688 -0.42788 0.00000
										}
									}
								}
							}
						}
					}
					JOINT LeftShoulder
					{
						OFFSET 0.72014 -1.20022 3.88874
						CHANNELS 3 Xrotation Yrotation Zrotation
						JOINT LeftArm
						{
							OFFSET 3.57668 0.00000 0.00000
							CHANNELS 3 Xrotation Yrotation Zrotation
							JOINT LeftForeArm
							{
								OFFSET 5.92485 0.00000 0.00000
								CHANNELS 3 Xrotation Yrotation Zrotation
								JOINT LeftHand
								{
									OFFSET 6.63013 0.00000 0.00000
									CHANNELS 3 Xrotation Yrotation Zrotation
									JOINT LeftHandEnd
									{
										OFFSET 1.65321 0.00000 0.00000
										CHANNELS 3 Xrotation Yrotation Zrotation
										End Site
										{
											OFFSET 1.65321 0.00000 0.00000
										}
									}
									JOINT LeftHandThumb1
									{
										OFFSET 0.66129 -1.10214 -0.44086
										CHANNELS 3 Yrotation Xrotation Zrotation
										End Site
										{
											OFFSET 1.59688 -0.42788 0.00000
										}
									}
								}
							}
						}
					}
				}
			}
		}
	}
	JOINT RightUpLeg
	{
		OFFSET -2.13640 0.00000 -0.62412
		CHANNELS 3 Xrotation Yrotation Zrotation
		JOINT RightLeg
		{
			OFFSET 0.00000 0.00000 -11.49360
			CHANNELS 3 Xrotation Yrotation Zrotation
			JOINT RightFoot
			{
				OFFSET 0.00000 0.00000 -8.79036
				CHANNELS 3 Xrotation Yrotation Zrotation
				JOINT RightToeBase
				{
					OFFSET 0.00000 -3.94625 -1.43632
					CHANNELS 3 Xrotation Yrotation Zrotation
					End Site
					{
						OFFSET 0.00000 -1.72833 -0.00000
					}
				}
			}
		}
	}
	JOINT LeftUpLeg
	{
		OFFSET 2.13640 0.00000 -0.62412
		CHANNELS 3 Xrotation Yrotation Zrotation
		JOINT LeftLeg
		{
			OFFSET 0.00000 0.00000 -11.49360
			CHANNELS 3 Xrotation Yrotation Zrotation
			JOINT LeftFoot
			{
				OFFSET 0.00000 0.00000 -8.79036
				CHANNELS 3 Xrotation Yrotation Zrotation
				JOINT LeftToeBase
				{
					OFFSET 0.00000 -3.94625 -1.43632
					CHANNELS 3 Xrotation Yrotation Zrotation
					End Site
					{
						OFFSET 0.00000 -1.72833 -0.00000
					}
				}
			}
		}
	}
}
MOTION
Frames: 18
Frame Time: 0.02
 0.4334 -1.7726 23.6190 -0.1400 -0.8713 176.4629 -4.4006 -5.3700 0.2085 -1.3917 -2.9609 -0.3330 7.7403 -0.5884 9.6476 1.5143 6.0757 -0.6543 -9.2442 8.8930 0.7379 3.3401 -0.7185 -9.5452 -7.0023 -2.7427 8.3739 -64.0208 -31.7758 -28.9212 -0.0000 0.0001 85.4160 35.8581 53.9276 -8.1479 0.0000 0.0000 -0.0000 0.0000 0.0000 -0.0000 -1.8131 19.8756 4.2994 -1.4275 65.4248 3.9524 -0.0000 -0.0000 -12.6469 -6.5105 -18.8006 15.6013 0.0000 -0.0000 -0.0000 -0.0000 -0.0000 0.0000 3.0878 2.7677 -48.2915 -4.4272 0.0000 -0.0000 20.7557 -14.7341 44.4522 -29.8518 0.0000 -0.0000 4.3689 -3.3677 18.4133 -6.4781 0.0000 -0.0000 -0.9999 -4.8596 -19.1750 -4.5768 0.0000 -0.0000
 0.4450 -1.7716 23.6189 -0.2347 -0.8955 176.3861 -4.4867 -5.4251 0.2238 -1.3990 -3.0172 -0.3352 7.7768 -0.5522 9.8226 1.5513 6.1628 -0.6660 -9.2608 8.7967 0.4781 3.4573 -0.6758 -10.1505 -7.3671 -2.5672 8.4876 -63.6437 -32.4493 -28.3255 -0.0000 0.0001 86.3319 37.2265 54.9556 -8.3784 -0.0000 -0.0000 -0.0000 0.0000 -0.0000 0.0000 -1.8851 19.8186 4.3377 -2.3150 65.0017 4.9400 -0.0000 -0.0000 -12.9203 -6.3698 -18.8712 15.6471 0.0000 0.0000 0.0000 -0.0000 0.0000 -0.0000 2.9886 2.7099 -48.1794 -4.4322 0.0000 -0.0000 20.7335 -14.7217 44.4075 -29.8313 0.0000 -0.0000 4.2860 -3.4281 18.4187 -6.4656 0.0000 -0.0000 -1.0046 -4.8652 -19.0990 -4.5627 0.0000 -0.0000
 0.4575 -1.7693 23.6188 -0.2879 -0.9262 176.3192 -4.5242 -5.4669 0.2430 -1.4029 -3.0593 -0.3363 7.8032 -0.5368 9.9986 1.5775 6.2491 -0.6769 -9.2798 8.6599 0.2123 3.5818 -0.6224 -10.7455 -7.6161 -2.3926 8.6239 -62.4260 -32.9859 -27.2021 -0.0000 0.0001 87.1753 38.6178 55.9178 -8.2325 -0.0000 0.0000 -0.0000 -0.0000 0.0000 -0.0000 -1.9518 19.7798 4.3921 -2.5844 64.4238 5.3359 -0.0000 -0.0000 -13.2243 -6.2190 -18.9643 15.6713 -0.0000 -0.0000 0.0000 0.0000 -0.0000 0.0000 2.9368 2.6459 -48.0649 -4.4344 0.0000 -0.0000 20.7015 -14.7131 44.3533 -29.8081 0.0000 -0.0000 4.2499 -3.4941 18.4351 -6.4578 0.0000 -0.0000 -1.0104 -4.8688 -19.0422 -4.5525 0.0000 -0.0000
 0.4703 -1.7662 23.6188 -0.3262 -0.9553 176.2715 -4.5473 -5.4877 0.2653 -1.4041 -3.0957 -0.3368 7.8248 -0.5267 10.1572 1.5946 6.3171 -0.6837 -9.3024 8.4922 -0.0493 3.7034 -0.5583 -11.3151 -7.7609 -2.1976 8.7775 -60.3667 -33.3396 -25.5691 -0.0000 0.0001 87.9493 40.0137 56.7927 -7.6927 -0.0000 0.0000 0.0000 -0.0000 0.0000 0.0000 -2.0347 19.7903 4.4530 -2.2743 63.6997 5.2085 -0.0000 -0.0000 -13.5578 -6.0522 -19.0664 15.6708 0.0000 0.0000 -0.0000 0.0000 -0.0000 0.0000 2.9041 2.5854 -47.9496 -4.4295 0.0000 -0.0000 20.6559 -14.7124 44.2817 -29.7839 0.0000 -0.0000 4.2267 -3.5589 18.4525 -6.4470 0.0000 -0.0000 -1.0178 -4.8716 -19.0049 -4.5469 0.0000 -0.0000
 0.4831 -1.7625 23.6188 -0.3590 -0.9854 176.2494 -4.5723 -5.4965 0.2840 -1.4000 -3.1266 -0.3354 7.8444 -0.5176 10.2942 1.6055 6.3739 -0.6880 -9.3273 8.2850 -0.3052 3.8135 -0.4809 -11.8418 -7.8142 -1.9862 8.9429 -57.5203 -33.4400 -23.4742 -0.0000 0.0001 88.6614 41.4417 57.5401 -6.8232 -0.0000 -0.0000 -0.0000 -0.0000 -0.0000 0.0000 -2.1263 19.8496 4.5021 -1.4613 62.8550 4.6356 -0.0000 -0.0000 -13.9111 -5.8680 -19.1786 15.6357 0.0000 0.0000 0.0000 -0.0000 -0.0000 0.0000 2.8818 2.5239 -47.8468 -4.4214 0.0000 -0.0000 20.6010 -14.7160 44.1987 -29.7613 0.0000 -0.0000 4.2050 -3.6253 18.4730 -6.4328 0.0000 -0.0000 -1.0289 -4.8724 -18.9956 -4.5446 0.0000 -0.0000
 0.4955 -1.7580 23.6188 -0.3738 -1.0128 176.2607 -4.5893 -5.4946 0.2997 -1.3934 -3.1480 -0.3330 7.8679 -0.5101 10.3967 1.6098 6.4241 -0.6921 -9.3552 8.0344 -0.5479 3.9051 -0.3897 -12.3107 -7.7867 -1.7546 9.1135 -54.0092 -33.2351 -21.0082 -0.0000 0.0001 89.3231 42.9894 58.1194 -5.7879 -0.0000 -0.0000 0.0000 -0.0000 0.0000 0.0000 -2.2160 19.9549 4.5418 -0.1955 61.9123 3.6560 -0.0000 -0.0000 -14.2735 -5.6804 -19.3138 15.5734 0.0000 -0.0000 -0.0000 0.0000 0.0000 0.0000 2.8845 2.4667 -47.7641 -4.4113 0.0000 -0.0000 20.5369 -14.7266 44.1045 -29.7402 0.0000 -0.0000 4.1967 -3.6876 18.4919 -6.4170 0.0000 -0.0000 -1.0415 -4.8701 -19.0178 -4.5464 0.0000 -0.0000
 0.5072 -1.7530 23.6188 -0.3799 -1.0382 176.3092 -4.6127 -5.4865 0.3112 -1.3849 -3.1618 -0.3324 7.9006 -0.4984 10.4642 1.6089 6.4669 -0.6995 -9.3850 7.7436 -0.7726 3.9707 -0.2872 -12.7109 -7.6978 -1.4989 9.2818 -49.9891 -32.6888 -18.2924 -0.0000 0.0001 89.9456 44.7683 58.5239 -4.7948 0.0000 0.0000 -0.0000 0.0000 -0.0000 0.0000 -2.2923 20.1028 4.5676 1.4150 60.8898 2.3619 -0.0000 -0.0000 -14.6298 -5.4901 -19.4759 15.4798 -0.0000 0.0000 -0.0000 0.0000 0.0000 0.0000 2.9026 2.4120 -47.7071 -4.4002 0.0000 -0.0000 20.4653 -14.7432 44.0001 -29.7218 0.0000 -0.0000 4.1902 -3.7473 18.5061 -6.3981 0.0000 -0.0000 -1.0568 -4.8642 -19.0721 -4.5506 0.0000 -0.0000
 0.5185 -1.7474 23.6187 -0.3725 -1.0627 176.3957 -4.6396 -5.4774 0.3147 -1.3749 -3.1695 -0.3335 7.9484 -0.4789 10.4978 1.6001 6.5107 -0.7131 -9.4133 7.4110 -0.9741 4.0058 -0.1787 -13.0354 -7.5402 -1.2297 9.4499 -45.6499 -31.7737 -15.4451 -0.0000 0.0001 90.5306 46.9124 58.7917 -4.0929 -0.0000 -0.0000 -0.0000 0.0000 -0.0000 0.0000 -2.3564 20.2724 4.5734 3.2391 59.8141 0.8866 -0.0000 -0.0000 -14.9777 -5.3007 -19.6771 15.3625 0.0000 -0.0000 0.0000 -0.0000 0.0000 0.0000 2.9416 2.3582 -47.6821 -4.3907 0.0000 -0.0000 20.3888 -14.7641 43.8901 -29.7063 0.0000 -0.0000 4.1908 -3.8053 18.5131 -6.3773 0.0000 -0.0000 -1.0744 -4.8543 -19.1567 -4.5560 0.0000 -0.0000
 0.5291 -1.7412 23.6185 -0.3251 -1.0843 176.5196 -4.6316 -5.4732 0.3145 -1.3681 -3.1690 -0.3350 7.9966 -0.4446 10.4959 1.5895 6.5607 -0.7316 -9.4365 7.0340 -1.1538 4.0086 -0.0682 -13.2792 -7.3286 -0.9506 9.6203 -41.1685 -30.4969 -12.6036 -0.0000 0.0001 91.0696 49.4992 59.0022 -3.8352 -0.0000 0.0000 -0.0000 -0.0000 -0.0000 -0.0000 -2.3872 20.4399 4.5425 5.1304 58.7143 -0.6465 -0.0000 -0.0000 -15.3130 -5.1093 -19.9185 15.2318 0.0000 0.0000 0.0000 0.0000 -0.0000 0.0000 3.0295 2.3086 -47.6880 -4.3846 0.0000 -0.0000 20.3084 -14.7922 43.7749 -29.6959 0.0000 -0.0000 4.2281 -3.8573 18.5090 -6.3593 0.0000 -0.0000 -1.0905 -4.8395 -19.2668 -4.5630 0.0000 -0.0000
 0.5392 -1.7350 23.6183 -0.2620 -1.1026 176.6740 -4.6131 -5.4771 0.3070 -1.3639 -3.1675 -0.3382 8.0461 -0.3919 10.4703 1.5800 6.6296 -0.7559 -9.4552 6.6110 -1.3106 3.9792 0.0376 -13.4433 -7.0558 -0.6850 9.7967 -36.7132 -28.8714 -9.8611 -0.0000 0.0001 91.5372 52.5836 59.2525 -4.1073 0.0000 0.0000 -0.0000 0.0000 0.0000 0.0000 -2.4023 20.5808 4.4852 6.9958 57.6180 -2.1483 -0.0000 -0.0000 -15.6276 -4.9084 -20.1948 15.0933 -0.0000 -0.0000 -0.0000 0.0000 0.0000 0.0000 3.1380 2.2614 -47.7280 -4.3809 0.0000 -0.0000 20.2277 -14.8221 43.6627 -29.6899 0.0000 -0.0000 4.2739 -3.9061 18.4926 -6.3377 0.0000 -0.0000 -1.1081 -4.8218 -19.3949 -4.5701 0.0000 -0.0000
 0.5491 -1.7289 23.6180 -0.1903 -1.1158 176.8558 -4.5952 -5.4914 0.2927 -1.3608 -3.1661 -0.3429 8.1069 -0.3136 10.4313 1.5628 6.7157 -0.7889 -9.4646 6.1520 -1.4434 3.9192 0.1307 -13.5344 -6.7087 -0.4488 9.9825 -32.4399 -26.9265 -7.2939 -0.0000 0.0001 91.8991 56.1858 59.6270 -4.9001 -0.0000 -0.0000 0.0000 0.0000 -0.0000 0.0000 -2.3784 20.6887 4.3838 8.7185 56.5438 -3.5329 -0.0000 -0.0000 -15.9214 -4.7051 -20.4981 14.9597 -0.0000 0.0000 -0.0000 -0.0000 -0.0000 0.0000 3.2573 2.2193 -47.8006 -4.3747 0.0000 -0.0000 20.1450 -14.8536 43.5550 -29.6882 0.0000 -0.0000 4.3201 -3.9509 18.4632 -6.3112 0.0000 -0.0000 -1.1260 -4.8016 -19.5378 -4.5769 0.0000 -0.0000
 0.5591 -1.7235 23.6177 -0.1194 -1.1241 177.0534 -4.5783 -5.5222 0.2752 -1.3579 -3.1662 -0.3491 8.1668 -0.2071 10.3924 1.5430 6.8265 -0.8282 -9.4633 5.6619 -1.5542 3.8311 0.2025 -13.5626 -6.2789 -0.2624 10.1825 -28.4881 -24.7063 -4.9732 -0.0000 0.0001 92.1312 60.3003 60.1685 -6.1498 0.0000 0.0000 -0.0000 0.0000 0.0000 -0.0000 -2.3244 20.7448 4.2427 10.2345 55.5179 -4.7500 -0.0000 -0.0000 -16.1880 -4.4989 -20.8089 14.8333 0.0000 -0.0000 -0.0000 0.0000 -0.0000 -0.0000 3.3746 2.1815 -47.8950 -4.3647 0.0000 -0.0000 20.0610 -14.8849 43.4517 -29.6895 0.0000 -0.0000 4.3574 -3.9933 18.4226 -6.2774 0.0000 -0.0000 -1.1447 -4.7806 -19.6861 -4.5824 0.0000 -0.0000
 0.5693 -1.7190 23.6174 -0.0522 -1.1305 177.2613 -4.5579 -5.5729 0.2528 -1.3527 -3.1706 -0.3552 8.2160 -0.0725 10.3676 1.5216 6.9665 -0.8746 -9.4524 5.1461 -1.6446 3.7217 0.2507 -13.5396 -5.7609 -0.1404 10.3984 -24.9778 -22.2805 -2.9459 -0.0000 0.0001 92.2182 64.8745 60.8846 -7.7462 -0.0000 -0.0000 -0.0000 0.0000 0.0000 0.0000 -2.2372 20.7451 4.0751 11.5317 54.5462 -5.8139 -0.0000 -0.0000 -16.4233 -4.3043 -21.1075 14.7269 -0.0000 0.0000 -0.0000 0.0000 0.0000 0.0000 3.4865 2.1430 -48.0170 -4.3543 0.0000 -0.0000 19.9818 -14.9110 43.3641 -29.6942 0.0000 -0.0000 4.3834 -4.0372 18.3694 -6.2361 0.0000 -0.0000 -1.1642 -4.7597 -19.8328 -4.5870 0.0000 -0.0000
 0.5804 -1.7151 23.6171 0.0267 -1.1372 177.4691 -4.5128 -5.6405 0.2303 -1.3470 -3.1831 -0.3609 8.2558 0.0911 10.3709 1.4918 7.1250 -0.9236 -9.4267 4.6279 -1.7158 3.5964 0.2667 -13.4833 -5.1468 -0.0852 10.6279 -22.0079 -19.7340 -1.2312 -0.0000 0.0001 92.1580 69.8015 61.7580 -9.5831 0.0000 0.0000 -0.0000 -0.0000 0.0000 -0.0000 -2.1213 20.6880 3.8634 12.5391 53.6554 -6.6534 -0.0000 -0.0000 -16.6329 -4.1235 -21.3761 14.6292 0.0000 -0.0000 -0.0000 -0.0000 0.0000 0.0000 3.6072 2.1024 -48.1489 -4.3413 0.0000 -0.0000 19.9046 -14.9337 43.2856 -29.7005 0.0000 -0.0000 4.4171 -4.0848 18.3081 -6.1889 0.0000 -0.0000 -1.1843 -4.7386 -19.9716 -4.5911 0.0000 -0.0000
 0.5923 -1.7123 23.6169 0.1041 -1.1455 177.6717 -4.4489 -5.7238 0.2100 -1.3385 -3.2082 -0.3685 8.2763 0.2834 10.4140 1.4544 7.2990 -0.9755 -9.3881 4.1199 -1.7708 3.4606 0.2495 -13.4075 -4.4500 -0.0912 10.8699 -19.6411 -17.1977 0.1658 -0.0000 0.0001 91.9696 75.0082 62.7383 -11.6683 0.0000 -0.0000 -0.0000 -0.0000 -0.0000 -0.0000 -1.9904 20.5859 3.6293 13.2810 52.8361 -7.3014 -0.0000 -0.0000 -16.8148 -3.9500 -21.5683 14.5612 0.0000 -0.0000 -0.0000 0.0000 -0.0000 -0.0000 3.7217 2.0574 -48.2907 -4.3265 0.0000 -0.0000 19.8321 -14.9493 43.2212 -29.7050 0.0000 -0.0000 4.4442 -4.1381 18.2398 -6.1338 0.0000 -0.0000 -1.2053 -4.7193 -20.0991 -4.5947 0.0000 -0.0000
 0.6052 -1.7109 23.6168 0.1666 -1.1554 177.8635 -4.3750 -5.8209 0.1928 -1.3235 -3.2433 -0.3752 8.2680 0.4988 10.5019 1.4122 7.4833 -1.0232 -9.3399 3.6321 -1.8144 3.3204 0.2016 -13.3272 -3.7075 -0.1494 11.1109 -17.8899 -14.8192 1.2695 -0.0000 0.0001 91.6723 80.2430 63.8038 -13.9119 -0.0000 0.0000 0.0000 0.0000 -0.0000 -0.0000 -1.8403 20.4530 3.3693 13.7669 52.0828 -7.7718 -0.0000 -0.0000 -16.9783 -3.8052 -21.6918 14.5131 0.0000 0.0000 0.0000 -0.0000 0.0000 -0.0000 3.8141 2.0082 -48.4317 -4.3078 0.0000 -0.0000 19.7624 -14.9581 43.1658 -29.7091 0.0000 -0.0000 4.4506 -4.1982 18.1686 -6.0699 0.0000 -0.0000 -1.2267 -4.7018 -20.2140 -4.5987 0.0000 -0.0000
 0.6191 -1.7105 23.6168 0.2305 -1.1685 178.0442 -4.2708 -5.9246 0.1805 -1.3024 -3.2898 -0.3832 8.2309 0.7310 10.6370 1.3605 7.6664 -1.0659 -9.2833 3.1848 -1.8456 3.1809 0.1213 -13.2554 -2.9713 -0.2091 11.3495 -16.7362 -12.7957 2.0985 -0.0000 0.0001 91.2904 85.3454 64.9176 -16.3687 -0.0000 -0.0000 0.0000 0.0000 0.0000 0.0000 -1.6772 20.3075 3.1054 14.0455 51.3848 -8.1233 -0.0000 -0.0000 -17.1139 -3.6967 -21.7362 14.4765 0.0000 -0.0000 0.0000 -0.0000 -0.0000 -0.0000 3.9026 1.9536 -48.5676 -4.2874 0.0000 -0.0000 19.6959 -14.9619 43.1167 -29.7111 0.0000 -0.0000 4.4562 -4.2645 18.0972 -6.0021 0.0000 -0.0000 -1.2469 -4.6863 -20.3183 -4.6037 0.0000 -0.0000
 0.6339 -1.7115 23.6170 0.2779 -1.1833 178.2140 -4.1568 -6.0316 0.1737 -1.2714 -3.3336 -0.3828 8.1652 0.9605 10.8083 1.2988 7.8505 -1.1050 -9.2194 2.7723 -1.8701 3.0440 0.0171 -13.1971 -2.2679 -0.2927 11.5706 -16.1558 -11.2201 2.7260 -0.0000 0.0001 90.8208 90.0967 66.0604 -19.0649 -0.0000 -0.0000 -0.0000 -0.0000 -0.0000 0.0000 -1.5274 20.1590 2.8386 14.1182 50.7439 -8.3205 -0.0000 -0.0000 -17.2458 -3.6076 -21.7012 14.4578 0.0000 0.0000 0.0000 0.0000 0.0000 0.0000 3.9675 1.8953 -48.6966 -4.2637 0.0000 -0.0000 19.6313 -14.9602 43.0717 -29.7107 0.0000 -0.0000 4.4402 -4.3362 18.0266 -5.9281 0.0000 -0.0000 -1.2655 -4.6735 -20.4138 -4.6096 0.0000 -0.0000
